<svg t="1671185942512" class="icon" viewBox="0 0 1024 1024" version="1.1" xmlns="http://www.w3.org/2000/svg" p-id="1012" width="200" height="200"><path d="M928 352a16 16 0 0 0 0-32H688V80a16 16 0 0 0-32 0V320h-288V80a16 16 0 0 0-32 0V320H96a16 16 0 0 0 0 32H336v288H96a16 16 0 0 0 0 32H336v272a16 16 0 0 0 32 0V672h288v272a16 16 0 0 0 32 0V672h240a16 16 0 0 0 0-32H688v-288h240zM656 640h-288v-288h288v288z" fill="#828282" p-id="1013"></path><path d="M1008 976v-928c0-26.464-21.536-48-48-48h-896C37.536 0 16 21.536 16 48v928c0 26.464 21.536 48 48 48h896c26.464 0 48-21.536 48-48z m-960 0v-928a16 16 0 0 1 16-16h896a16 16 0 0 1 16 16v928a16 16 0 0 1-16 16h-896a16 16 0 0 1-16-16z" fill="#828282" p-id="1014"></path></svg>